<?xml version="1.0" encoding="UTF-8" standalone="no"?>
<!-- Created with Inkscape (http://www.inkscape.org/) -->

<svg
   version="1.1"
   id="svg18"
   width="235.66666"
   height="323.89987"
   viewBox="0 0 235.66666 323.89987"
   sodipodi:docname="foreman-icon.svg"
   inkscape:version="1.2.2 (732a01da63, 2022-12-09, custom)"
   xmlns:inkscape="http://www.inkscape.org/namespaces/inkscape"
   xmlns:sodipodi="http://sodipodi.sourceforge.net/DTD/sodipodi-0.dtd"
   xmlns="http://www.w3.org/2000/svg"
   xmlns:svg="http://www.w3.org/2000/svg">
  <defs
     id="defs22" />
  <sodipodi:namedview
     id="namedview20"
     pagecolor="#ffffff"
     bordercolor="#666666"
     borderopacity="1.0"
     inkscape:showpageshadow="2"
     inkscape:pageopacity="0.0"
     inkscape:pagecheckerboard="0"
     inkscape:deskcolor="#d1d1d1"
     showgrid="false"
     inkscape:zoom="1.4992944"
     inkscape:cx="118.05553"
     inkscape:cy="120.38996"
     inkscape:window-width="1864"
     inkscape:window-height="1016"
     inkscape:window-x="56"
     inkscape:window-y="27"
     inkscape:window-maximized="1"
     inkscape:current-layer="g28">
    <inkscape:page
       x="0"
       y="0"
       id="page24"
       width="235.66666"
       height="323.89987" />
  </sodipodi:namedview>
  <g
     id="g26"
     inkscape:groupmode="layer"
     inkscape:label="Page 1"
     transform="matrix(1.3333333,0,0,-1.3333333,-165.63333,413.97332)">
    <g
       id="g28"
       transform="scale(0.1)">
      <path
         d="m 3009.75,675.551 c -1.45,207.469 -13.56,462.549 -59.65,584.169 -92.5,244.35 -205.74,233.77 -205.74,233.77 l -2.88,-817.939 h 268.27"
         style="fill:#2c2829;fill-opacity:1;fill-rule:nonzero;stroke:none"
         id="path38" />
      <path
         d="m 1510.53,675.551 -2.87,817.939 c 0,0 -113.21,10.58 -205.77,-233.77 -46.07,-121.62 -58.18,-376.7 -59.64,-584.169 h 268.28"
         style="fill:#2c2829;fill-opacity:1;fill-rule:nonzero;stroke:none"
         id="path40" />
      <path
         d="m 2136.52,1995.73 h -259.1 v -385.05 c 0,0 107.48,-211.79 259.1,-211.79 147.17,0 259.2,199.88 259.2,199.88 v 396.96 h -259.2"
         style="fill:#efb180;fill-opacity:1;fill-rule:nonzero;stroke:none"
         id="path42" />
      <path
         d="m 2623.2,2450.82 c -12.42,2.95 -22.54,-0.5 -30.78,-7.26 0.06,7.94 0.28,15.63 0.28,23.72 0,191.74 -56.74,313.33 -131.06,390.56 h -721.93 c -87.89,-85.63 -140.92,-219.54 -146.51,-422.34 -9.51,11.71 -22.07,19.3 -38.79,15.32 -49.68,-11.71 -45.17,-146.34 0,-212.11 31.25,-45.54 53.11,-49.84 63.6,-48.09 81.31,-322.16 338.85,-514.81 501.21,-514.81 158.55,0 372.62,157.65 446.89,514.69 11.86,0.99 31.21,10.24 57.09,48.21 44.93,65.77 49.44,200.4 0,212.11"
         style="fill:#fbc594;fill-opacity:1;fill-rule:nonzero;stroke:none"
         id="path44" />
      <path
         d="m 1716.21,2857.84 c -111.93,-115.64 -137.77,-290.36 -123.2,-473.55 0,0 130.8,-37.09 157.4,230.97 0,0 365.92,-89.93 612.03,124.17 0,0 129.75,-132.39 143.48,-258.14 10.19,-93.14 54.28,-107.27 86.78,-97 0,0 27.93,286.66 -102.91,473.55 0,0 -102.29,168.49 -399.56,168.49 -203.1,0 -303.28,-95.4 -374.02,-168.49"
         style="fill:#5a3114;fill-opacity:1;fill-rule:nonzero;stroke:none"
         id="path46" />
      <path
         d="m 2750.76,675.551 v 813.859 l -322.38,106.96 -297.72,-153.77 -304.55,153.77 -322.4,-106.96 V 675.551 h 1247.05"
         style="fill:#322f30;fill-opacity:1;fill-rule:nonzero;stroke:none"
         id="path48" />
      <path
         d="m 2169.98,675.551 252.68,937.819 -281.41,-177.81 -308.22,179.23 248.06,-939.239 h 88.89"
         style="fill:#ffffff;fill-opacity:1;fill-rule:nonzero;stroke:none"
         id="path50" />
      <path
         d="m 2149.96,675.551 10.96,797.769 h -51.45 l -0.06,-797.769 h 40.55"
         style="fill:#e9e9e9;fill-opacity:1;fill-rule:nonzero;stroke:none"
         id="path52" />
      <path
         d="m 2706.78,724.68 h -373.09 v 86.562 h 373.09 V 724.68"
         style="fill:#2c2829;fill-opacity:1;fill-rule:nonzero;stroke:none"
         id="path54" />
      <path
         d="m 2711.82,722.93 h -383.25 v 4.672 h 383.25 v -4.672"
         style="fill:#292627;fill-opacity:1;fill-rule:nonzero;stroke:none"
         id="path56" />
      <path
         d="m 2151.82,1382.52 c 0,-9.84 -7.97,-17.81 -17.76,-17.81 -9.84,0 -17.87,7.97 -17.87,17.81 0,9.9 8.03,17.93 17.87,17.93 9.79,0 17.76,-8.03 17.76,-17.93"
         style="fill:#918f90;fill-opacity:1;fill-rule:nonzero;stroke:none"
         id="path58" />
      <path
         d="m 2148.79,1382.52 c 0,-8.16 -6.6,-14.82 -14.73,-14.82 -8.22,0 -14.78,6.66 -14.78,14.82 0,8.25 6.56,14.91 14.78,14.91 8.13,0 14.73,-6.66 14.73,-14.91"
         style="fill:#d3d2d2;fill-opacity:1;fill-rule:nonzero;stroke:none"
         id="path60" />
      <path
         d="m 2131.74,1387.04 c 0,-1.47 -1.25,-2.72 -2.72,-2.72 -1.5,0 -2.67,1.25 -2.67,2.72 0,1.52 1.17,2.67 2.67,2.67 1.47,0 2.72,-1.15 2.72,-2.67"
         style="fill:#918f90;fill-opacity:1;fill-rule:nonzero;stroke:none"
         id="path62" />
      <path
         d="m 2141.72,1387.04 c 0,-1.47 -1.21,-2.72 -2.68,-2.72 -1.56,0 -2.67,1.25 -2.67,2.72 0,1.52 1.11,2.67 2.67,2.67 1.47,0 2.68,-1.15 2.68,-2.67"
         style="fill:#918f90;fill-opacity:1;fill-rule:nonzero;stroke:none"
         id="path64" />
      <path
         d="m 2131.74,1378.13 c 0,-1.52 -1.25,-2.67 -2.72,-2.67 -1.5,0 -2.67,1.15 -2.67,2.67 0,1.47 1.17,2.68 2.67,2.68 1.47,0 2.72,-1.21 2.72,-2.68"
         style="fill:#918f90;fill-opacity:1;fill-rule:nonzero;stroke:none"
         id="path66" />
      <path
         d="m 2141.72,1378.13 c 0,-1.52 -1.21,-2.67 -2.68,-2.67 -1.56,0 -2.67,1.15 -2.67,2.67 0,1.47 1.11,2.68 2.67,2.68 1.47,0 2.68,-1.21 2.68,-2.68"
         style="fill:#918f90;fill-opacity:1;fill-rule:nonzero;stroke:none"
         id="path68" />
      <path
         d="m 2127.71,1388.34 0.16,-2.18 10.02,-9.39 2.25,0.08 -0.16,2.09 -10.16,9.44 -2.11,-0.04"
         style="fill:#ffffff;fill-opacity:1;fill-rule:nonzero;stroke:none"
         id="path70" />
      <path
         d="m 2139.98,1388.34 v -2.18 l -10.23,-9.39 -2.04,0.08 v 2.09 l 10.18,9.44 2.09,-0.04"
         style="fill:#ffffff;fill-opacity:1;fill-rule:nonzero;stroke:none"
         id="path72" />
      <path
         d="m 2151.82,1233.39 c 0,-9.84 -7.97,-17.81 -17.76,-17.81 -9.84,0 -17.87,7.97 -17.87,17.81 0,9.93 8.03,17.9 17.87,17.9 9.79,0 17.76,-7.97 17.76,-17.9"
         style="fill:#918f90;fill-opacity:1;fill-rule:nonzero;stroke:none"
         id="path74" />
      <path
         d="m 2148.79,1233.39 c 0,-8.16 -6.6,-14.79 -14.73,-14.79 -8.22,0 -14.78,6.63 -14.78,14.79 0,8.22 6.56,14.85 14.78,14.85 8.13,0 14.73,-6.63 14.73,-14.85"
         style="fill:#d3d2d2;fill-opacity:1;fill-rule:nonzero;stroke:none"
         id="path76" />
      <path
         d="m 2131.74,1237.87 c 0,-1.46 -1.25,-2.68 -2.72,-2.68 -1.5,0 -2.67,1.22 -2.67,2.68 0,1.46 1.17,2.77 2.67,2.77 1.47,0 2.72,-1.31 2.72,-2.77"
         style="fill:#918f90;fill-opacity:1;fill-rule:nonzero;stroke:none"
         id="path78" />
      <path
         d="m 2141.72,1237.87 c 0,-1.46 -1.21,-2.68 -2.68,-2.68 -1.56,0 -2.67,1.22 -2.67,2.68 0,1.46 1.11,2.77 2.67,2.77 1.47,0 2.68,-1.31 2.68,-2.77"
         style="fill:#918f90;fill-opacity:1;fill-rule:nonzero;stroke:none"
         id="path80" />
      <path
         d="m 2131.74,1228.94 c 0,-1.43 -1.25,-2.68 -2.72,-2.68 -1.5,0 -2.67,1.25 -2.67,2.68 0,1.56 1.17,2.71 2.67,2.71 1.47,0 2.72,-1.15 2.72,-2.71"
         style="fill:#918f90;fill-opacity:1;fill-rule:nonzero;stroke:none"
         id="path82" />
      <path
         d="m 2141.72,1228.94 c 0,-1.43 -1.21,-2.68 -2.68,-2.68 -1.56,0 -2.67,1.25 -2.67,2.68 0,1.56 1.11,2.71 2.67,2.71 1.47,0 2.68,-1.15 2.68,-2.71"
         style="fill:#918f90;fill-opacity:1;fill-rule:nonzero;stroke:none"
         id="path84" />
      <path
         d="m 2127.71,1239.21 0.16,-2.15 10.02,-9.46 2.25,0.06 -0.16,2.18 -10.16,9.44 -2.11,-0.07"
         style="fill:#ffffff;fill-opacity:1;fill-rule:nonzero;stroke:none"
         id="path86" />
      <path
         d="m 2139.98,1239.21 v -2.15 l -10.23,-9.46 -2.04,0.06 v 2.18 l 10.18,9.44 2.09,-0.07"
         style="fill:#ffffff;fill-opacity:1;fill-rule:nonzero;stroke:none"
         id="path88" />
      <path
         d="m 2151.82,1084.26 c 0,-9.87 -7.97,-17.84 -17.76,-17.84 -9.84,0 -17.87,7.97 -17.87,17.84 0,9.87 8.03,17.9 17.87,17.9 9.79,0 17.76,-8.03 17.76,-17.9"
         style="fill:#918f90;fill-opacity:1;fill-rule:nonzero;stroke:none"
         id="path90" />
      <path
         d="m 2148.79,1084.26 c 0,-8.22 -6.6,-14.85 -14.73,-14.85 -8.22,0 -14.78,6.63 -14.78,14.85 0,8.22 6.56,14.81 14.78,14.81 8.13,0 14.73,-6.59 14.73,-14.81"
         style="fill:#d3d2d2;fill-opacity:1;fill-rule:nonzero;stroke:none"
         id="path92" />
      <path
         d="m 2131.74,1088.74 c 0,-1.5 -1.25,-2.74 -2.72,-2.74 -1.5,0 -2.67,1.24 -2.67,2.74 0,1.46 1.17,2.67 2.67,2.67 1.47,0 2.72,-1.21 2.72,-2.67"
         style="fill:#918f90;fill-opacity:1;fill-rule:nonzero;stroke:none"
         id="path94" />
      <path
         d="m 2141.72,1088.74 c 0,-1.5 -1.21,-2.74 -2.68,-2.74 -1.56,0 -2.67,1.24 -2.67,2.74 0,1.46 1.11,2.67 2.67,2.67 1.47,0 2.68,-1.21 2.68,-2.67"
         style="fill:#918f90;fill-opacity:1;fill-rule:nonzero;stroke:none"
         id="path96" />
      <path
         d="m 2131.74,1079.77 c 0,-1.49 -1.25,-2.67 -2.72,-2.67 -1.5,0 -2.67,1.18 -2.67,2.67 0,1.53 1.17,2.75 2.67,2.75 1.47,0 2.72,-1.22 2.72,-2.75"
         style="fill:#918f90;fill-opacity:1;fill-rule:nonzero;stroke:none"
         id="path98" />
      <path
         d="m 2141.72,1079.77 c 0,-1.49 -1.21,-2.67 -2.68,-2.67 -1.56,0 -2.67,1.18 -2.67,2.67 0,1.53 1.11,2.75 2.67,2.75 1.47,0 2.68,-1.22 2.68,-2.75"
         style="fill:#918f90;fill-opacity:1;fill-rule:nonzero;stroke:none"
         id="path100" />
      <path
         d="m 2127.71,1090.08 0.16,-2.18 10.02,-9.44 2.25,0.07 -0.16,2.12 -10.16,9.46 -2.11,-0.03"
         style="fill:#ffffff;fill-opacity:1;fill-rule:nonzero;stroke:none"
         id="path102" />
      <path
         d="m 2139.98,1090.08 v -2.18 l -10.23,-9.44 -2.04,0.07 v 2.12 l 10.18,9.46 2.09,-0.03"
         style="fill:#ffffff;fill-opacity:1;fill-rule:nonzero;stroke:none"
         id="path104" />
      <path
         d="m 2151.82,935.148 c 0,-9.859 -7.97,-17.886 -17.76,-17.886 -9.84,0 -17.87,8.027 -17.87,17.886 0,9.852 8.03,17.821 17.87,17.821 9.79,0 17.76,-7.969 17.76,-17.821"
         style="fill:#918f90;fill-opacity:1;fill-rule:nonzero;stroke:none"
         id="path106" />
      <path
         d="m 2148.79,935.148 c 0,-8.148 -6.6,-14.839 -14.73,-14.839 -8.22,0 -14.78,6.691 -14.78,14.839 0,8.204 6.56,14.864 14.78,14.864 8.13,0 14.73,-6.66 14.73,-14.864"
         style="fill:#d3d2d2;fill-opacity:1;fill-rule:nonzero;stroke:none"
         id="path108" />
      <path
         d="m 2131.74,939.551 c 0,-1.442 -1.25,-2.719 -2.72,-2.719 -1.5,0 -2.67,1.277 -2.67,2.719 0,1.551 1.17,2.699 2.67,2.699 1.47,0 2.72,-1.148 2.72,-2.699"
         style="fill:#918f90;fill-opacity:1;fill-rule:nonzero;stroke:none"
         id="path110" />
      <path
         d="m 2141.72,939.551 c 0,-1.442 -1.21,-2.719 -2.68,-2.719 -1.56,0 -2.67,1.277 -2.67,2.719 0,1.551 1.11,2.699 2.67,2.699 1.47,0 2.68,-1.148 2.68,-2.699"
         style="fill:#918f90;fill-opacity:1;fill-rule:nonzero;stroke:none"
         id="path112" />
      <path
         d="m 2131.74,930.711 c 0,-1.531 -1.25,-2.742 -2.72,-2.742 -1.5,0 -2.67,1.211 -2.67,2.742 0,1.43 1.17,2.68 2.67,2.68 1.47,0 2.72,-1.25 2.72,-2.68"
         style="fill:#918f90;fill-opacity:1;fill-rule:nonzero;stroke:none"
         id="path114" />
      <path
         d="m 2141.72,930.711 c 0,-1.531 -1.21,-2.742 -2.68,-2.742 -1.56,0 -2.67,1.211 -2.67,2.742 0,1.43 1.11,2.68 2.67,2.68 1.47,0 2.68,-1.25 2.68,-2.68"
         style="fill:#918f90;fill-opacity:1;fill-rule:nonzero;stroke:none"
         id="path116" />
      <path
         d="m 2127.71,940.922 0.16,-2.152 10.02,-9.469 2.25,0.031 -0.16,2.148 -10.16,9.559 -2.11,-0.117"
         style="fill:#ffffff;fill-opacity:1;fill-rule:nonzero;stroke:none"
         id="path118" />
      <path
         d="m 2139.98,940.922 v -2.152 l -10.23,-9.469 -2.04,0.031 v 2.148 l 10.18,9.559 2.09,-0.117"
         style="fill:#ffffff;fill-opacity:1;fill-rule:nonzero;stroke:none"
         id="path120" />
      <path
         d="m 2151.82,785.941 c 0,-9.812 -7.97,-17.851 -17.76,-17.851 -9.84,0 -17.87,8.039 -17.87,17.851 0,9.957 8.03,17.899 17.87,17.899 9.79,0 17.76,-7.942 17.76,-17.899"
         style="fill:#918f90;fill-opacity:1;fill-rule:nonzero;stroke:none"
         id="path122" />
      <path
         d="m 2148.79,785.941 c 0,-8.203 -6.6,-14.761 -14.73,-14.761 -8.22,0 -14.78,6.558 -14.78,14.761 0,8.309 6.56,14.938 14.78,14.938 8.13,0 14.73,-6.629 14.73,-14.938"
         style="fill:#d3d2d2;fill-opacity:1;fill-rule:nonzero;stroke:none"
         id="path124" />
      <path
         d="m 2131.74,790.449 c 0,-1.469 -1.25,-2.679 -2.72,-2.679 -1.5,0 -2.67,1.21 -2.67,2.679 0,1.52 1.17,2.699 2.67,2.699 1.47,0 2.72,-1.179 2.72,-2.699"
         style="fill:#918f90;fill-opacity:1;fill-rule:nonzero;stroke:none"
         id="path126" />
      <path
         d="m 2141.72,790.449 c 0,-1.469 -1.21,-2.679 -2.68,-2.679 -1.56,0 -2.67,1.21 -2.67,2.679 0,1.52 1.11,2.699 2.67,2.699 1.47,0 2.68,-1.179 2.68,-2.699"
         style="fill:#918f90;fill-opacity:1;fill-rule:nonzero;stroke:none"
         id="path128" />
      <path
         d="m 2131.74,781.512 c 0,-1.461 -1.25,-2.703 -2.72,-2.703 -1.5,0 -2.67,1.242 -2.67,2.703 0,1.527 1.17,2.679 2.67,2.679 1.47,0 2.72,-1.152 2.72,-2.679"
         style="fill:#918f90;fill-opacity:1;fill-rule:nonzero;stroke:none"
         id="path130" />
      <path
         d="m 2141.72,781.512 c 0,-1.461 -1.21,-2.703 -2.68,-2.703 -1.56,0 -2.67,1.242 -2.67,2.703 0,1.527 1.11,2.679 2.67,2.679 1.47,0 2.68,-1.152 2.68,-2.679"
         style="fill:#918f90;fill-opacity:1;fill-rule:nonzero;stroke:none"
         id="path132" />
      <path
         d="m 2127.71,791.809 0.16,-2.27 10.02,-9.418 2.25,0.078 -0.16,2.18 -10.16,9.43 h -2.11"
         style="fill:#ffffff;fill-opacity:1;fill-rule:nonzero;stroke:none"
         id="path134" />
      <path
         d="m 2139.98,791.809 v -2.27 l -10.23,-9.418 -2.04,0.078 v 2.18 l 10.18,9.43 h 2.09"
         style="fill:#ffffff;fill-opacity:1;fill-rule:nonzero;stroke:none"
         id="path136" />
      <path
         d="m 2131.91,1479.55 c 0,0 149.77,28.5 263.66,134.96 l 41.77,0.41 -117.59,-298.98 -187.84,121.77 v 41.84"
         style="fill:#d3d2d2;fill-opacity:1;fill-rule:nonzero;stroke:none"
         id="path138" />
      <path
         d="m 2132.29,1479.55 c 0,0 -149.75,28.5 -263.68,134.96 l -41.73,0.41 117.61,-298.98 187.8,121.77 v 41.84"
         style="fill:#d3d2d2;fill-opacity:1;fill-rule:nonzero;stroke:none"
         id="path140" />
      <path
         d="m 2198.36,675.551 c 29.2,66.219 58.38,127.75 69.49,135.789 l -66.01,599.32 h -136.35 l -69.01,-624.14 c 17.86,-39.688 34.87,-77.11 50.36,-110.969 h 151.52"
         style="fill:#2c2829;fill-opacity:1;fill-rule:nonzero;stroke:none"
         id="path142" />
      <path
         d="m 2133.44,1298.5 c -42.23,30.33 -61.25,49.15 -91.92,91.03 30.67,41.95 49.69,60.72 91.92,91.07 42.24,-30.35 61.42,-49.12 92.05,-91.07 -30.63,-41.88 -49.81,-60.7 -92.05,-91.03"
         style="fill:#2c2829;fill-opacity:1;fill-rule:nonzero;stroke:none"
         id="path144" />
      <path
         d="m 2045.84,675.551 h 34.49 l -246.72,934.199 -64.66,1.03 -57.62,-79.16 67.38,-67.98 -68.14,-67.27 335.27,-720.819"
         style="fill:#2c2829;fill-opacity:1;fill-rule:nonzero;stroke:none"
         id="path146" />
      <path
         d="m 2205.45,675.551 335.27,720.819 -68.12,67.27 67.5,67.98 -57.76,79.16 -59.25,-0.44 -251.29,-934.789 h 33.65"
         style="fill:#2c2829;fill-opacity:1;fill-rule:nonzero;stroke:none"
         id="path148" />
      <path
         d="m 1695.49,2618 v 110.5 c 0,9.28 -8.69,16.84 -19.47,16.84 h -73.21 c -10.7,0 -19.49,-7.56 -19.49,-16.84 V 2618 h 112.17"
         style="fill:#eea40b;fill-opacity:1;fill-rule:nonzero;stroke:none"
         id="path150" />
      <path
         d="m 2635.9,2618 v 110.5 c 0,9.28 -8.71,16.84 -19.51,16.84 h -73.19 c -10.74,0 -19.49,-7.56 -19.49,-16.84 V 2618 h 112.19"
         style="fill:#eea40b;fill-opacity:1;fill-rule:nonzero;stroke:none"
         id="path152" />
      <path
         d="m 2605.37,2618 c 0.7,9.96 1.31,20.02 1.31,30.1 0,237.06 -222.58,429.21 -497.09,429.21 -274.47,0 -497.03,-192.15 -497.03,-429.21 0,-10.08 0.57,-20.14 1.37,-30.1 h 991.44"
         style="fill:#fbc308;fill-opacity:1;fill-rule:nonzero;stroke:none"
         id="path154" />
      <path
         d="m 2300.74,2677.76 c 0,-21 -19.78,-38.06 -44.1,-38.06 h -294 c -24.34,0 -44.07,17.06 -44.07,38.06 v 339.2 c 0,10.52 47.72,74.52 191.02,74.52 149.41,0 191.15,-64 191.15,-74.52 v -339.2"
         style="fill:#eea40b;fill-opacity:1;fill-rule:nonzero;stroke:none"
         id="path156" />
      <path
         d="m 2152.36,2711.47 c 0,-13.69 -19.14,-24.77 -42.77,-24.77 -23.59,0 -42.7,11.08 -42.7,24.77 v 368.65 c 0,13.67 19.11,24.68 42.7,24.68 23.63,0 42.77,-11.01 42.77,-24.68 v -368.65"
         style="fill:#ea8610;fill-opacity:1;fill-rule:nonzero;stroke:none"
         id="path158" />
      <path
         d="m 2660.86,2539.28 c -1,-7.48 -11.76,-12.57 -24.12,-11.49 -350.47,32.09 -703.75,32.09 -1054.22,0 -12.38,-1.08 -23.18,4.01 -24.1,11.49 -2.54,20.1 -5.16,40.25 -7.76,60.29 -0.89,7.44 8.54,14.51 21.08,15.69 357.65,32.69 718.14,32.69 1075.78,0 12.56,-1.18 21.97,-8.25 21,-15.69 -2.58,-20.04 -5.1,-40.22 -7.66,-60.29"
         style="fill:#eea40b;fill-opacity:1;fill-rule:nonzero;stroke:none"
         id="path160" />
    </g>
  </g>
</svg>
